<mxfile host="app.diagrams.net" modified="2022-10-29T15:49:12.954Z" agent="5.0 (Macintosh; Intel Mac OS X 10_15_7) AppleWebKit/537.36 (KHTML, like Gecko) Chrome/106.0.0.0 Safari/537.36" etag="ppvHwEXUYG7Io1sy7RPn" version="20.5.1" type="github">
  <diagram id="DampOy-ss6dfZsPp6-mh" name="Trang-1">
    <mxGraphModel dx="786" dy="446" grid="1" gridSize="10" guides="1" tooltips="1" connect="1" arrows="1" fold="1" page="1" pageScale="1" pageWidth="827" pageHeight="1169" math="0" shadow="0">
      <root>
        <mxCell id="0" />
        <mxCell id="1" parent="0" />
        <mxCell id="H-iJJ37xxEtVOfiBevHQ-2" value="" style="shape=image;verticalLabelPosition=bottom;labelBackgroundColor=default;verticalAlign=top;aspect=fixed;imageAspect=0;image=chrome-extension://cbnaodkpfinfiipjblikofhlhlcickei/assets/images/logo/256.png;imageBackground=#D4E1F5;fillStyle=auto;imageBorder=default;strokeWidth=2;" vertex="1" parent="1">
          <mxGeometry x="120" y="120" width="210" height="210" as="geometry" />
        </mxCell>
        <mxCell id="H-iJJ37xxEtVOfiBevHQ-3" value="Global Scope" style="text;html=1;strokeColor=none;fillColor=none;align=left;verticalAlign=middle;whiteSpace=wrap;rounded=0;fillStyle=auto;fontColor=#333333;" vertex="1" parent="1">
          <mxGeometry x="130" y="120" width="130" height="30" as="geometry" />
        </mxCell>
        <mxCell id="H-iJJ37xxEtVOfiBevHQ-4" value="" style="shape=image;verticalLabelPosition=bottom;labelBackgroundColor=default;verticalAlign=top;aspect=fixed;imageAspect=0;image=chrome-extension://cbnaodkpfinfiipjblikofhlhlcickei/assets/images/logo/256.png;imageBackground=#E1D5E7;imageBorder=default;" vertex="1" parent="1">
          <mxGeometry x="167.5" y="195" width="115" height="115" as="geometry" />
        </mxCell>
        <mxCell id="H-iJJ37xxEtVOfiBevHQ-5" value="Function x Scope" style="text;html=1;strokeColor=none;fillColor=none;align=left;verticalAlign=middle;whiteSpace=wrap;rounded=0;fillStyle=auto;strokeWidth=2;fontColor=#333333;" vertex="1" parent="1">
          <mxGeometry x="174" y="195" width="110" height="30" as="geometry" />
        </mxCell>
        <mxCell id="H-iJJ37xxEtVOfiBevHQ-8" value="b: 10" style="text;html=1;strokeColor=none;fillColor=none;align=left;verticalAlign=middle;whiteSpace=wrap;rounded=0;fillStyle=auto;strokeWidth=2;fontColor=#6600CC;fontSize=14;fontStyle=1" vertex="1" parent="1">
          <mxGeometry x="174" y="231.25" width="76" height="42.5" as="geometry" />
        </mxCell>
        <mxCell id="H-iJJ37xxEtVOfiBevHQ-12" value="&lt;font color=&quot;#0000cc&quot;&gt;a: 5&lt;/font&gt;" style="text;html=1;strokeColor=none;fillColor=none;align=left;verticalAlign=middle;whiteSpace=wrap;rounded=0;fillStyle=auto;strokeWidth=2;fontColor=#EA6B66;fontSize=14;fontStyle=1" vertex="1" parent="1">
          <mxGeometry x="130" y="150" width="76" height="42.5" as="geometry" />
        </mxCell>
        <mxCell id="H-iJJ37xxEtVOfiBevHQ-13" value="" style="shape=image;verticalLabelPosition=bottom;labelBackgroundColor=default;verticalAlign=top;aspect=fixed;imageAspect=0;image=chrome-extension://cbnaodkpfinfiipjblikofhlhlcickei/assets/images/logo/256.png;imageBackground=#D4E1F5;fillStyle=auto;imageBorder=default;strokeWidth=2;" vertex="1" parent="1">
          <mxGeometry x="383" y="120" width="360" height="360" as="geometry" />
        </mxCell>
        <mxCell id="H-iJJ37xxEtVOfiBevHQ-14" value="Global Scope" style="text;html=1;strokeColor=none;fillColor=none;align=left;verticalAlign=middle;whiteSpace=wrap;rounded=0;fillStyle=auto;fontColor=#333333;" vertex="1" parent="1">
          <mxGeometry x="393" y="120" width="130" height="30" as="geometry" />
        </mxCell>
        <mxCell id="H-iJJ37xxEtVOfiBevHQ-15" value="" style="shape=image;verticalLabelPosition=bottom;labelBackgroundColor=default;verticalAlign=top;aspect=fixed;imageAspect=0;image=chrome-extension://cbnaodkpfinfiipjblikofhlhlcickei/assets/images/logo/256.png;imageBackground=#E1D5E7;imageBorder=default;" vertex="1" parent="1">
          <mxGeometry x="430.5" y="240" width="220" height="220" as="geometry" />
        </mxCell>
        <mxCell id="H-iJJ37xxEtVOfiBevHQ-16" value="Function x Scope" style="text;html=1;strokeColor=none;fillColor=none;align=left;verticalAlign=middle;whiteSpace=wrap;rounded=0;fillStyle=auto;strokeWidth=2;fontColor=#333333;" vertex="1" parent="1">
          <mxGeometry x="437" y="244" width="110" height="30" as="geometry" />
        </mxCell>
        <mxCell id="H-iJJ37xxEtVOfiBevHQ-17" value="c: 15" style="text;html=1;strokeColor=none;fillColor=none;align=left;verticalAlign=middle;whiteSpace=wrap;rounded=0;fillStyle=auto;strokeWidth=2;fontColor=#6600CC;fontSize=14;fontStyle=1" vertex="1" parent="1">
          <mxGeometry x="437" y="263" width="76" height="42.5" as="geometry" />
        </mxCell>
        <mxCell id="H-iJJ37xxEtVOfiBevHQ-18" value="&lt;font color=&quot;#0000cc&quot;&gt;a: 5&lt;br&gt;&lt;/font&gt;" style="text;html=1;strokeColor=none;fillColor=none;align=left;verticalAlign=middle;whiteSpace=wrap;rounded=0;fillStyle=auto;strokeWidth=2;fontColor=#EA6B66;fontSize=14;fontStyle=1" vertex="1" parent="1">
          <mxGeometry x="397" y="133" width="76" height="42.5" as="geometry" />
        </mxCell>
        <mxCell id="H-iJJ37xxEtVOfiBevHQ-19" value="" style="shape=image;verticalLabelPosition=bottom;labelBackgroundColor=default;verticalAlign=top;aspect=fixed;imageAspect=0;image=chrome-extension://cbnaodkpfinfiipjblikofhlhlcickei/assets/images/logo/256.png;imageBackground=#D5E8D4;imageBorder=default;" vertex="1" parent="1">
          <mxGeometry x="480.5" y="300" width="110" height="110" as="geometry" />
        </mxCell>
        <mxCell id="H-iJJ37xxEtVOfiBevHQ-20" value="block scope" style="text;html=1;strokeColor=none;fillColor=none;align=left;verticalAlign=middle;whiteSpace=wrap;rounded=0;fillStyle=auto;strokeWidth=2;fontColor=#333333;" vertex="1" parent="1">
          <mxGeometry x="483" y="273.75" width="110" height="30" as="geometry" />
        </mxCell>
        <mxCell id="H-iJJ37xxEtVOfiBevHQ-21" value="&lt;font color=&quot;#00994d&quot;&gt;d: 0&lt;/font&gt;" style="text;html=1;strokeColor=none;fillColor=none;align=left;verticalAlign=middle;whiteSpace=wrap;rounded=0;fillStyle=auto;strokeWidth=2;fontColor=#6600CC;fontSize=14;fontStyle=1" vertex="1" parent="1">
          <mxGeometry x="493" y="355.75" width="76" height="42.5" as="geometry" />
        </mxCell>
        <mxCell id="H-iJJ37xxEtVOfiBevHQ-22" value="" style="shape=image;verticalLabelPosition=bottom;labelBackgroundColor=default;verticalAlign=top;aspect=fixed;imageAspect=0;image=chrome-extension://cbnaodkpfinfiipjblikofhlhlcickei/assets/images/logo/256.png;" vertex="1" parent="1">
          <mxGeometry x="1030" y="260" width="520" height="520" as="geometry" />
        </mxCell>
        <mxCell id="H-iJJ37xxEtVOfiBevHQ-26" value="" style="rounded=1;whiteSpace=wrap;html=1;fillStyle=auto;strokeWidth=1;fontSize=14;dashed=1;fillColor=#dae8fc;strokeColor=#6c8ebf;" vertex="1" parent="1">
          <mxGeometry x="393" y="171.25" width="107" height="58.75" as="geometry" />
        </mxCell>
        <mxCell id="H-iJJ37xxEtVOfiBevHQ-27" value="&lt;font color=&quot;#0000cc&quot;&gt;b: 10&lt;br&gt;&lt;/font&gt;" style="text;html=1;strokeColor=none;fillColor=none;align=left;verticalAlign=middle;whiteSpace=wrap;rounded=0;fillStyle=auto;strokeWidth=2;fontColor=#EA6B66;fontSize=14;fontStyle=1" vertex="1" parent="1">
          <mxGeometry x="397" y="181" width="76" height="42.5" as="geometry" />
        </mxCell>
      </root>
    </mxGraphModel>
  </diagram>
</mxfile>
